<svg width="103" height="103" viewBox="0 0 103 103" fill="none" xmlns="http://www.w3.org/2000/svg">
<path d="M0 0H83C94.0457 0 103 8.9543 103 20V83C103 94.0457 94.0457 103 83 103H0V0Z" fill="#7C5DFA"/>
<mask id="mask0_1_194" style="mask-type:luminance" maskUnits="userSpaceOnUse" x="0" y="0" width="103" height="103">
<path d="M0 0H83C94.0457 0 103 8.9543 103 20V83C103 94.0457 94.0457 103 83 103H0V0Z" fill="white"/>
</mask>
<g mask="url(#mask0_1_194)">
<g filter="url(#filter0_d_1_194)">
<path d="M103 52H20C8.95431 52 0 60.9543 0 72V135C0 146.046 8.95431 155 20 155H103V52Z" fill="#9277FF"/>
</g>
</g>
<path fill-rule="evenodd" clip-rule="evenodd" d="M42.6942 33.292L52 51.9998L61.3058 33.292C67.6645 36.6406 72 43.3139 72 50.9998C72 62.0454 63.0457 70.9998 52 70.9998C40.9543 70.9998 32 62.0454 32 50.9998C32 43.3139 36.3355 36.6406 42.6942 33.292Z" fill="white"/>
<defs>
<filter id="filter0_d_1_194" x="-4" y="52" width="111" height="111" filterUnits="userSpaceOnUse" color-interpolation-filters="sRGB">
<feFlood flood-opacity="0" result="BackgroundImageFix"/>
<feColorMatrix in="SourceAlpha" type="matrix" values="0 0 0 0 0 0 0 0 0 0 0 0 0 0 0 0 0 0 127 0" result="hardAlpha"/>
<feOffset dy="4"/>
<feGaussianBlur stdDeviation="2"/>
<feComposite in2="hardAlpha" operator="out"/>
<feColorMatrix type="matrix" values="0 0 0 0 0 0 0 0 0 0 0 0 0 0 0 0 0 0 0.25 0"/>
<feBlend mode="normal" in2="BackgroundImageFix" result="effect1_dropShadow_1_194"/>
<feBlend mode="normal" in="SourceGraphic" in2="effect1_dropShadow_1_194" result="shape"/>
</filter>
</defs>
</svg>
